<mxfile host="app.diagrams.net" modified="2023-06-30T08:18:26.278Z" agent="Mozilla/5.0 (iPad; CPU OS 16_5 like Mac OS X) AppleWebKit/605.1.15 (KHTML, like Gecko) CriOS/114.0.5735.124 Mobile/15E148 Safari/604.1" etag="SFBfnZqNQV26nEOgNML-" version="21.5.2" type="github">
  <diagram name="Trang-1" id="Wo1rhTGzUEvQ1JcT_uwH">
    <mxGraphModel dx="708" dy="592" grid="1" gridSize="10" guides="1" tooltips="1" connect="1" arrows="1" fold="1" page="1" pageScale="1" pageWidth="1169" pageHeight="827" math="0" shadow="0">
      <root>
        <mxCell id="0" />
        <mxCell id="1" parent="0" />
        <mxCell id="y8iHC0R3a-ySznIy8n3w-1" value="" style="ellipse;whiteSpace=wrap;html=1;" parent="1" vertex="1">
          <mxGeometry x="230" y="160" width="120" height="80" as="geometry" />
        </mxCell>
      </root>
    </mxGraphModel>
  </diagram>
</mxfile>
